<?xml version="1.0" standalone="no"?><!DOCTYPE svg PUBLIC "-//W3C//DTD SVG 1.1//EN" "http://www.w3.org/Graphics/SVG/1.1/DTD/svg11.dtd"><svg t="1619351893743" class="icon" viewBox="0 0 1024 1024" version="1.1" xmlns="http://www.w3.org/2000/svg" p-id="7235" xmlns:xlink="http://www.w3.org/1999/xlink" width="48" height="48"><defs><style type="text/css"></style></defs><path d="M170.666667 128h682.666666a42.666667 42.666667 0 0 1 42.666667 42.666667v682.666666a42.666667 42.666667 0 0 1-42.666667 42.666667H170.666667a42.666667 42.666667 0 0 1-42.666667-42.666667V170.666667a42.666667 42.666667 0 0 1 42.666667-42.666667z m567.466666 552.106667c-4.266667-2.133333-6.4-8.533333-6.4-12.842667V341.589333c0-4.266667 2.133333-10.666667 6.4-14.976l40.746667-47.146666V277.333333H633.173333l-109.226666 276.394667L399.616 277.333333H249.685333v2.133334l38.528 53.589333c8.576 8.533333 10.709333 21.418667 10.709334 32.128v235.648c2.133333 12.885333 0 27.861333-6.4 40.704L234.666667 720.810667v2.133333h154.282666v-2.133333L331.093333 643.712c-6.4-12.885333-8.576-25.728-6.4-40.704V388.693333c2.133333 4.266667 4.266667 4.266667 6.4 12.842667l145.664 325.674667h2.133334L620.373333 373.76c-2.133333 12.8-2.133333 27.818667-2.133333 38.570667v252.8c0 6.4-2.133333 10.666667-6.4 14.976l-42.88 40.704v2.133333h209.962667v-2.133333l-40.704-40.704z" fill="#444444" p-id="7236"></path></svg>