<?xml version="1.0" standalone="no"?><!DOCTYPE svg PUBLIC "-//W3C//DTD SVG 1.1//EN" "http://www.w3.org/Graphics/SVG/1.1/DTD/svg11.dtd"><svg t="1619355599051" class="icon" viewBox="0 0 1024 1024" version="1.1" xmlns="http://www.w3.org/2000/svg" p-id="7524" xmlns:xlink="http://www.w3.org/1999/xlink" width="48" height="48"><defs><style type="text/css"></style></defs><path d="M768 0a256 256 0 0 1 256 256v512a256 256 0 0 1-256 256H256a256 256 0 0 1-256-256V256a256 256 0 0 1 256-256h512z m49.152 260.7104c9.6256-45.9264-16.1792-63.8976-45.568-52.6336L135.68 458.4448c-43.3664 17.3568-42.752 42.1888-7.3728 53.504l162.56 52.0192 377.6512-243.0464c17.7664-12.0832 33.8944-5.376 20.6336 6.656l-305.4592 282.112-11.8784 171.6224c16.9984 0 24.3712-7.5264 33.1264-16.5376l79.5648-78.1824 164.8128 124.16c30.208 17.3056 51.5072 8.192 59.648-28.672z" fill="#444444" p-id="7525"></path></svg>